<svg width="119.538330078125px" height="122px" xmlns="http://www.w3.org/2000/svg" viewBox="190.2308349609375 14 119.538330078125 122" style="background: rgba(0, 0, 0, 0);" preserveAspectRatio="xMidYMid"><defs><filter id="editing-extrude-glow"><feFlood flood-color="#333333" result="flood-1"></feFlood><feMorphology operator="erode" radius="1" in="SourceAlpha" result="erode"></feMorphology><feComposite operator="in" in="flood-1" in2="erode" result="comp1"></feComposite><feConvolveMatrix order="3,3" divisor="1" in="comp1" result="convolve" kernelMatrix="0 0 0 1 1 1 0 0 0"></feConvolveMatrix><feOffset dx="-3" dy="0" in="convolve" result="extrude"></feOffset><feComposite operator="in" in="flood-1" in2="extrude" result="comp-extrude"></feComposite><feFlood flood-color="#000000" result="flood-2"></feFlood><feComposite operator="in" in="flood-2" in2="SourceAlpha" result="comp2"></feComposite><feMorphology operator="dilate" radius="1" in="comp2" result="dilate"></feMorphology><feOffset dx="-4.5" dy="0" in="dilate" result="offset"></feOffset><feGaussianBlur in="offset" stdDeviation="5.8" result="blur"></feGaussianBlur><feComponentTransfer in="blur" result="shadow"><feFuncA type="linear" slope="0.8" intercept="-0.2"></feFuncA></feComponentTransfer><feMerge><feMergeNode in="shadow"></feMergeNode><feMergeNode in="comp-extrude"></feMergeNode><feMergeNode in="SourceGraphic"></feMergeNode></feMerge></filter></defs><g filter="url(#editing-extrude-glow)"><g transform="translate(214.40380963683128, 97.4000015258789)"><path d="M30.21-33.92L30.21-33.92L30.21-33.92Q25.02-33.92 21.25-35.65L21.25-35.65L19.20-25.28L31.55-25.28L31.55-25.28Q31.55-21.89 29.86-19.74L29.86-19.74L29.86-19.74Q28.16-17.60 25.09-17.60L25.09-17.60L25.09-17.60Q21.76-17.60 18.69-18.82L18.69-18.82L18.69-18.82Q18.05-19.07 17.98-19.14L17.98-19.14L14.34 0L0.38 0L8.51-42.24L37.06-42.24L37.06-42.24Q37.06-38.34 35.23-36.13L35.23-36.13L35.23-36.13Q33.41-33.92 30.21-33.92ZM60.42-29.57L60.42-29.57L60.42-29.57Q61.38-31.49 61.38-33.28L61.38-33.28L61.38-33.28Q61.38-35.07 61.18-36.06L61.18-36.06L61.18-36.06Q60.99-37.06 60.54-37.82L60.54-37.82L60.54-37.82Q59.58-39.49 57.66-39.49L57.66-39.49L57.66-39.49Q55.30-39.49 53.38-37.76L53.38-37.76L53.38-37.76Q51.33-35.97 51.33-33.15L51.33-33.15L51.33-33.15Q51.33-31.36 52.58-29.98L52.58-29.98L52.58-29.98Q53.82-28.61 55.74-27.33L55.74-27.33L55.74-27.33Q57.66-26.05 59.84-24.77L59.84-24.77L59.84-24.77Q62.02-23.49 63.94-21.95L63.94-21.95L63.94-21.95Q68.35-18.43 68.35-13.70L68.35-13.70L68.35-13.70Q68.35-10.50 66.66-7.78L66.66-7.78L66.66-7.78Q64.96-5.06 62.14-3.07L62.14-3.07L62.14-3.07Q56 1.28 47.87 1.28L47.87 1.28L47.87 1.28Q41.28 1.28 37.89-0.86L37.89-0.86L37.89-0.86Q34.50-3.01 34.50-6.27L34.50-6.27L34.50-6.27Q34.50-12.10 39.04-13.57L39.04-13.57L39.04-13.57Q40.32-14.02 42.27-14.02L42.27-14.02L42.27-14.02Q44.22-14.02 46.46-13.18L46.46-13.18L46.46-13.18Q45.44-10.56 45.44-8.19L45.44-8.19L45.44-8.19Q45.44-3.07 49.09-3.07L49.09-3.07L49.09-3.07Q51.46-3.07 53.41-4.80L53.41-4.80L53.41-4.80Q55.36-6.53 55.36-8.48L55.36-8.48L55.36-8.48Q55.36-10.43 54.11-11.84L54.11-11.84L54.11-11.84Q52.86-13.25 51.01-14.37L51.01-14.37L51.01-14.37Q49.15-15.49 47.01-16.58L47.01-16.58L47.01-16.58Q44.86-17.66 43.01-19.20L43.01-19.20L43.01-19.20Q38.66-22.72 38.66-28.35L38.66-28.35L38.66-28.35Q38.66-32 40.45-34.85L40.45-34.85L40.45-34.85Q42.24-37.70 45.12-39.62L45.12-39.62L45.12-39.62Q50.88-43.52 57.95-43.52L57.95-43.52L57.95-43.52Q65.02-43.52 68.45-41.41L68.45-41.41L68.45-41.41Q71.87-39.30 71.87-35.71L71.87-35.71L71.87-35.71Q71.87-32.58 69.44-30.59L69.44-30.59L69.44-30.59Q67.33-28.93 64.77-28.93L64.77-28.93L64.77-28.93Q62.21-28.93 60.42-29.57Z" fill="#eb6c6c"></path></g></g><style>text {
  font-size: 64px;
  font-family: Arial Black;
  dominant-baseline: central;
  text-anchor: middle;
}</style></svg>